<svg xmlns="http://www.w3.org/2000/svg" xmlns:xlink="http://www.w3.org/1999/xlink" version="1.1" x="0px" y="0px" viewBox="0 0 1206.948 1074.833" enable-background="new 0 0 1206.948 1074.833" xml:space="preserve" style="fill: rgb(0, 0, 0);" original_string_length="4143">
<g id="__id146_s9glv5imf9">
	<g>
		<path fill-rule="evenodd" clip-rule="evenodd" d="M88.133,515.235c120.346-87.597,99.952-181.68,99.952-181.68    c-63.42,13.922-88.796,66.917-91.087,78.046c-2.291,11.13-6.413,3.541-6.413,3.541C78.441,303.396,28.923,308.073,28.923,308.073    C-9.625,434.965,88.133,515.235,88.133,515.235z M116.206,679.036c0,0,75.416-101.269,61.068-204.965    c0,0-57.299-3.047-74.276,89.231c0,0-0.595,5.21-5.029-0.179c0,0-44.916-81.29-97.905-78.543    C0.063,484.581-6.584,628.361,116.206,679.036z M191.326,609.942c0,0-54.427,24.926-44.423,109.391c0,0,2.153,5.352-5.227,0.918    c0,0-60.508-52.832-118.095-33.66c0,0,35.282,117.208,182.34,125.808C205.922,812.398,246.385,678.377,191.326,609.942z     M321.904,929.438c-4.418-182.23-74.072-186.902-74.072-186.902c-37.21,52.253-4.067,113.096-4.067,113.096    c4.434,10.323-7.549,2.775-7.549,2.775c-69.466-54.608-122.532-10.955-122.532-10.955    C185.696,948.723,321.904,929.438,321.904,929.438z M336.866,134.661c0,0-32.508-29.326-95.054,2.146c0,0-9.826-4.754-0.067-9.43    S380.561,82.404,392.667,0.445c0,0-116.13-13.491-163.045,108.131l-9.201,4.367c0,0,32.226-79.362,1.125-106.609    c0,0-82.02,60.262-52.26,194.521C169.286,200.854,270.014,215.417,336.866,134.661z M254.501,210.62    c-83.001-7.537-118.129,57.256-118.129,57.256c13.004-82.719-16.35-147.684-16.35-147.684    C28.043,244.116,100.925,352.68,100.925,352.68C255.754,305.385,254.501,210.62,254.501,210.62z M1109.95,411.601    c-2.291-11.129-27.667-64.124-91.087-78.046c0,0-20.394,94.083,99.952,181.68c0,0,97.758-80.27,59.21-207.162    c0,0-49.519-4.677-61.663,107.069C1116.362,415.142,1112.241,422.731,1109.95,411.601z M1108.979,563.124    c-4.435,5.389-5.029,0.179-5.029,0.179c-16.978-92.278-74.276-89.231-74.276-89.231    c-14.348,103.696,61.067,204.965,61.067,204.965c122.791-50.675,116.144-194.455,116.144-194.455    C1153.896,481.833,1108.979,563.124,1108.979,563.124z M1065.271,720.25c-7.38,4.434-5.227-0.918-5.227-0.918    c10.003-84.465-44.423-109.391-44.423-109.391c-55.059,68.436-14.597,202.456-14.597,202.456    c147.059-8.6,182.341-125.808,182.341-125.808C1125.778,667.418,1065.271,720.25,1065.271,720.25z M970.731,858.407    c0,0-11.982,7.548-7.548-2.775c0,0,33.143-60.843-4.068-113.096c0,0-69.654,4.672-74.071,186.902    c0,0,136.208,19.285,208.221-81.986C1093.265,847.452,1040.198,803.798,970.731,858.407z M897.81,950.125    c-36.963-7.011-105.901-39.897-133.779-41.514c-27.879-1.616-77.838-12.931-150.035,48.625c-3.53,3.011-7.039,6.007-10.521,8.985    c-3.482-2.979-6.99-5.975-10.521-8.985c-72.197-61.556-122.156-50.241-150.035-48.625c-27.878,1.616-96.817,34.503-133.779,41.514    s-81.418,0.562-81.418,0.562c50.775,88.056,126.12,87.283,168.134,87.283c42.015,0,115.912-53.288,143.615-58.088    c13.776-2.388,27.506,2.895,37.833,8.808c-55.661,47.955-98.78,86.145-98.78,86.145h41.934l83.018-66.517l83.018,66.517h41.934    c0,0-43.119-38.19-98.779-86.145c10.327-5.913,24.057-11.194,37.832-8.808c27.704,4.8,101.602,58.088,143.615,58.088    c42.015,0,117.359,0.772,168.135-87.283C979.228,950.686,934.771,957.135,897.81,950.125z M965.202,127.377    c9.759,4.676-0.066,9.43-0.066,9.43c-62.547-31.473-95.054-2.146-95.054-2.146c66.853,80.756,167.58,66.193,167.58,66.193    C1067.421,66.595,985.401,6.333,985.401,6.333c-31.1,27.247,1.126,106.609,1.126,106.609l-9.201-4.367    C930.411-13.046,814.281,0.445,814.281,0.445C826.388,82.404,955.444,122.702,965.202,127.377z M952.447,210.62    c0,0-1.253,94.766,153.575,142.061c0,0,72.883-108.564-19.098-232.488c0,0-29.353,64.965-16.349,147.684    C1070.576,267.875,1035.448,203.083,952.447,210.62z" style="fill: rgb(132, 116, 69);"/>
	</g>
</g>
</svg>